<?xml version="1.0" encoding="iso-8859-1"?>
<!-- Generator: Adobe Illustrator 19.0.0, SVG Export Plug-In . SVG Version: 6.00 Build 0)  -->
<svg version="1.1" id="Layer_1" xmlns="http://www.w3.org/2000/svg" xmlns:xlink="http://www.w3.org/1999/xlink" x="0px" y="0px"
	 viewBox="0 0 512 512" style="enable-background:new 0 0 512 512;" xml:space="preserve">
<path style="fill:#C7CFE2;" d="M406.069,512H105.931c-9.751,0-17.655-7.904-17.655-17.655V17.655C88.276,7.904,96.18,0,105.931,0
	h300.138c9.751,0,17.655,7.904,17.655,17.655v476.69C423.724,504.096,415.82,512,406.069,512z"/>
<g>
	<path style="fill:#E4EAF6;" d="M194.207,353.103c-4.875,0-8.828-3.953-8.828-8.828V150.069c0-4.875,3.953-8.828,8.828-8.828
		s8.828,3.953,8.828,8.828v194.207C203.034,349.151,199.082,353.103,194.207,353.103z"/>
	<path style="fill:#E4EAF6;" d="M264.828,353.103c-4.875,0-8.828-3.953-8.828-8.828V150.069c0-4.875,3.953-8.828,8.828-8.828
		s8.828,3.953,8.828,8.828v194.207C273.655,349.151,269.703,353.103,264.828,353.103z"/>
</g>
<g>
	<path style="fill:#959CB3;" d="M150.069,291.31h-26.483c-9.751,0-17.655-7.904-17.655-17.655V220.69
		c0-9.751,7.904-17.655,17.655-17.655h26.483c9.751,0,17.655,7.904,17.655,17.655v52.966
		C167.724,283.406,159.82,291.31,150.069,291.31z"/>
	<rect x="220.69" style="fill:#959CB3;" width="17.655" height="485.517"/>
</g>
<path style="fill:#FFD764;" d="M141.241,256h-8.828c-4.875,0-8.828-3.953-8.828-8.828v-17.655c0-4.875,3.953-8.828,8.828-8.828
	h8.828c4.875,0,8.828,3.953,8.828,8.828v17.655C150.069,252.047,146.116,256,141.241,256z"/>
<path style="fill:#AFB9D2;" d="M423.724,494.345v-8.828H88.276v8.828c0,9.75,7.905,17.655,17.655,17.655h300.138
	C415.819,512,423.724,504.095,423.724,494.345z"/>
<g>
</g>
<g>
</g>
<g>
</g>
<g>
</g>
<g>
</g>
<g>
</g>
<g>
</g>
<g>
</g>
<g>
</g>
<g>
</g>
<g>
</g>
<g>
</g>
<g>
</g>
<g>
</g>
<g>
</g>
</svg>
