<?xml version="1.0" encoding="iso-8859-1"?>
<!-- Generator: Adobe Illustrator 19.0.0, SVG Export Plug-In . SVG Version: 6.00 Build 0)  -->
<svg version="1.1" id="Layer_1" xmlns="http://www.w3.org/2000/svg" xmlns:xlink="http://www.w3.org/1999/xlink" x="0px" y="0px"
	 viewBox="0 0 512 512" style="enable-background:new 0 0 512 512;" xml:space="preserve">
<path style="fill:#464655;" d="M105.965,105.944H70.658c-4.875,0-8.827,3.952-8.827,8.827v17.654h52.961V114.77
	C114.792,109.895,110.841,105.944,105.965,105.944z"/>
<path style="fill:#707487;" d="M158.926,105.944h-17.654c-4.875,0-8.827,3.952-8.827,8.827v17.654h35.307V114.77
	C167.753,109.895,163.802,105.944,158.926,105.944z"/>
<g>
	<path style="fill:#464655;" d="M70.643,406.056h-17.7c-4.869,0-8.819-3.943-8.827-8.813l-0.029-17.668h35.354l0.029,17.639
		C79.478,402.095,75.524,406.056,70.643,406.056z"/>
	<path style="fill:#464655;" d="M459.039,406.056h-17.7c-4.875,0-8.827-3.952-8.827-8.827v-17.654h35.354v17.654
		C467.866,402.104,463.914,406.056,459.039,406.056z"/>
</g>
<path style="fill:#707487;" d="M459.039,379.576H53.004c-24.374,0-44.134-19.76-44.134-44.134V176.558
	c0-24.374,19.76-44.134,44.134-44.134h406.035c24.374,0,44.134,19.76,44.134,44.134v158.883
	C503.173,359.816,483.413,379.576,459.039,379.576z"/>
<path style="fill:#464655;" d="M459.039,353.095H53.004c-9.75,0-17.654-7.903-17.654-17.654V176.558
	c0-9.75,7.903-17.654,17.654-17.654h406.035c9.75,0,17.654,7.903,17.654,17.654v158.883
	C476.693,345.191,468.789,353.095,459.039,353.095z"/>
<g>
	<path style="fill:#AFF5A0;" d="M256.022,247.173c-4.875,0-8.827-3.948-8.827-8.827v-8.827c0-4.879,3.952-8.827,8.827-8.827
		c4.875,0,8.827,3.948,8.827,8.827v8.827C264.848,243.224,260.896,247.173,256.022,247.173z"/>
	<path style="fill:#AFF5A0;" d="M256.022,291.307c-4.875,0-8.827-3.948-8.827-8.827v-8.827c0-4.879,3.952-8.827,8.827-8.827
		c4.875,0,8.827,3.948,8.827,8.827v8.827C264.848,287.358,260.896,291.307,256.022,291.307z"/>
	<path style="fill:#AFF5A0;" d="M459.039,388.403H52.961C23.756,388.403,0,364.646,0,335.442V176.558
		c0-29.205,23.756-52.961,52.961-52.961h406.078c29.205,0,52.961,23.756,52.961,52.961v158.883
		C512,364.645,488.244,388.403,459.039,388.403z M52.961,141.251c-19.472,0-35.307,15.835-35.307,35.307v158.883
		c0,19.472,15.835,35.307,35.307,35.307h406.078c19.472,0,35.307-15.835,35.307-35.307V176.558
		c0-19.472-15.835-35.307-35.307-35.307L52.961,141.251L52.961,141.251z"/>
	<path style="fill:#AFF5A0;" d="M132.446,203.039h-17.654c-14.602,0-26.481,11.879-26.481,26.481v52.961
		c0,14.602,11.879,26.481,26.481,26.481h17.654c14.602,0,26.481-11.879,26.481-26.481V229.52
		C158.926,214.917,147.048,203.039,132.446,203.039z M114.792,220.693h17.654c4.866,0,8.827,3.957,8.827,8.827v17.654h-35.307
		v-17.654C105.965,224.648,109.926,220.693,114.792,220.693z M132.446,291.307h-17.654c-4.866,0-8.827-3.957-8.827-8.827v-17.654
		h35.307v17.654C141.273,287.351,137.311,291.307,132.446,291.307z"/>
	<path style="fill:#AFF5A0;" d="M211.887,203.039h-17.654c-14.602,0-26.481,11.879-26.481,26.481v52.961
		c0,14.602,11.879,26.481,26.481,26.481h17.654c14.602,0,26.481-11.879,26.481-26.481V229.52
		C238.368,214.917,226.489,203.039,211.887,203.039z M194.234,220.693h17.654c4.866,0,8.827,3.957,8.827,8.827v17.654h-35.307
		v-17.654C185.407,224.648,189.368,220.693,194.234,220.693z M211.887,291.307h-17.654c-4.866,0-8.827-3.957-8.827-8.827v-17.654
		h35.307v17.654C220.714,287.351,216.753,291.307,211.887,291.307z"/>
	<path style="fill:#AFF5A0;" d="M317.809,203.039h-17.654c-14.602,0-26.481,11.879-26.481,26.481v52.961
		c0,14.602,11.879,26.481,26.481,26.481h17.654c14.602,0,26.481-11.879,26.481-26.481V229.52
		C344.29,214.917,332.411,203.039,317.809,203.039z M300.156,220.693h17.654c4.866,0,8.827,3.957,8.827,8.827v17.654h-35.307
		v-17.654C291.329,224.648,295.29,220.693,300.156,220.693z M317.809,291.307h-17.654c-4.866,0-8.827-3.957-8.827-8.827v-17.654
		h35.307v17.654C326.636,287.351,322.675,291.307,317.809,291.307z"/>
	<path style="fill:#AFF5A0;" d="M397.251,203.039h-17.654c-14.602,0-26.481,11.879-26.481,26.481v52.961
		c0,14.602,11.879,26.481,26.481,26.481h17.654c14.602,0,26.481-11.879,26.481-26.481V229.52
		C423.732,214.917,411.853,203.039,397.251,203.039z M379.597,220.693h17.654c4.866,0,8.827,3.957,8.827,8.827v17.654H370.77
		v-17.654C370.77,224.648,374.732,220.693,379.597,220.693z M397.251,291.307h-17.654c-4.866,0-8.827-3.957-8.827-8.827v-17.654
		h35.307v17.654C406.078,287.351,402.117,291.307,397.251,291.307z"/>
</g>
<g>
</g>
<g>
</g>
<g>
</g>
<g>
</g>
<g>
</g>
<g>
</g>
<g>
</g>
<g>
</g>
<g>
</g>
<g>
</g>
<g>
</g>
<g>
</g>
<g>
</g>
<g>
</g>
<g>
</g>
</svg>
