<?xml version="1.0" encoding="iso-8859-1"?>
<!-- Generator: Adobe Illustrator 19.0.0, SVG Export Plug-In . SVG Version: 6.00 Build 0)  -->
<svg version="1.1" id="Layer_1" xmlns="http://www.w3.org/2000/svg" xmlns:xlink="http://www.w3.org/1999/xlink" x="0px" y="0px"
	 viewBox="0 0 512 512" style="enable-background:new 0 0 512 512;" xml:space="preserve">
<g>
	<path style="fill:#707487;" d="M52.966,414.897H35.31c-4.875,0-8.828-3.953-8.828-8.828v-17.655h35.31v17.655
		C61.793,410.944,57.841,414.897,52.966,414.897z"/>
	<path style="fill:#707487;" d="M476.69,414.897h-17.655c-4.875,0-8.828-3.953-8.828-8.828v-17.655h35.31v17.655
		C485.517,410.944,481.565,414.897,476.69,414.897z"/>
</g>
<path style="fill:#AFB9D2;" d="M485.517,397.241H26.483C11.857,397.241,0,385.385,0,370.759V123.586
	c0-14.626,11.857-26.483,26.483-26.483h459.034c14.626,0,26.483,11.857,26.483,26.483v247.172
	C512,385.385,500.143,397.241,485.517,397.241z"/>
<path style="fill:#707487;" d="M397.241,379.586H35.31c-9.751,0-17.655-7.904-17.655-17.655V132.414
	c0-9.751,7.904-17.655,17.655-17.655h361.931c9.751,0,17.655,7.904,17.655,17.655v229.517
	C414.897,371.682,406.993,379.586,397.241,379.586z"/>
<path style="fill:#AFB9D2;" d="M379.586,353.103L379.586,353.103c4.875,0,8.828-3.953,8.828-8.828V150.069
	c0-4.875-3.953-8.828-8.828-8.828l0,0c-4.875,0-8.828,3.953-8.828,8.828v194.207C370.759,349.151,374.711,353.103,379.586,353.103z"
	/>
<path style="fill:#FFD764;" d="M52.966,353.103h282.483c4.875,0,8.828-3.953,8.828-8.828V150.069c0-4.875-3.953-8.828-8.828-8.828
	H52.966c-4.875,0-8.828,3.953-8.828,8.828v194.207C44.138,349.151,48.09,353.103,52.966,353.103z"/>
<g>
	<circle style="fill:#E4EAF6;" cx="463.448" cy="339.862" r="22.069"/>
	<circle style="fill:#E4EAF6;" cx="463.448" cy="278.069" r="22.069"/>
</g>
<g>
	<path style="fill:#959CB3;" d="M476.69,220.69h-26.483c-4.875,0-8.828-3.953-8.828-8.828l0,0c0-4.875,3.953-8.828,8.828-8.828
		h26.483c4.875,0,8.828,3.953,8.828,8.828l0,0C485.517,216.737,481.565,220.69,476.69,220.69z"/>
	<path style="fill:#959CB3;" d="M476.69,185.379h-26.483c-4.875,0-8.828-3.953-8.828-8.828l0,0c0-4.875,3.953-8.828,8.828-8.828
		h26.483c4.875,0,8.828,3.953,8.828,8.828l0,0C485.517,181.427,481.565,185.379,476.69,185.379z"/>
	<path style="fill:#959CB3;" d="M476.69,150.069h-26.483c-4.875,0-8.828-3.953-8.828-8.828l0,0c0-4.875,3.953-8.828,8.828-8.828
		h26.483c4.875,0,8.828,3.953,8.828,8.828l0,0C485.517,146.116,481.565,150.069,476.69,150.069z"/>
</g>
<g>
	<path style="fill:#FFE678;" d="M186.828,274.767c-2.259,0-4.518-0.862-6.241-2.586l-82.909-82.943
		c-3.448-3.448-3.448-9.038,0-12.483c3.448-3.448,9.035-3.448,12.483,0l82.909,82.943c3.448,3.448,3.448,9.038,0,12.483
		C191.346,273.906,189.087,274.767,186.828,274.767z"/>
	<path style="fill:#FFE678;" d="M300.138,337.297c-2.259,0-4.518-0.862-6.241-2.586l-63.61-63.624
		c-3.448-3.448-3.448-9.038,0-12.483c3.448-3.448,9.035-3.448,12.483,0l63.61,63.624c3.448,3.448,3.448,9.038,0,12.483
		C304.655,336.435,302.397,337.297,300.138,337.297z"/>
</g>
<path style="fill:#FFF08C;" d="M210.052,247.19c-2.259,0-4.522-0.862-6.241-2.586l-19.887-19.896c-3.448-3.448-3.448-9.038,0-12.483
	c3.448-3.448,9.043-3.448,12.483,0l19.887,19.896c3.448,3.448,3.448,9.038,0,12.483C214.57,246.327,212.311,247.19,210.052,247.19z"
	/>
<path style="fill:#FFBE5A;" d="M335.448,141.241H52.966c-4.875,0-8.828,3.953-8.828,8.828v17.655c0-4.875,3.953-8.828,8.828-8.828
	h282.483c4.875,0,8.828,3.953,8.828,8.828v-17.655C344.276,145.194,340.323,141.241,335.448,141.241z"/>
<g>
</g>
<g>
</g>
<g>
</g>
<g>
</g>
<g>
</g>
<g>
</g>
<g>
</g>
<g>
</g>
<g>
</g>
<g>
</g>
<g>
</g>
<g>
</g>
<g>
</g>
<g>
</g>
<g>
</g>
</svg>
