<?xml version="1.0" encoding="iso-8859-1"?>
<!-- Generator: Adobe Illustrator 19.0.0, SVG Export Plug-In . SVG Version: 6.00 Build 0)  -->
<svg version="1.1" id="Layer_1" xmlns="http://www.w3.org/2000/svg" xmlns:xlink="http://www.w3.org/1999/xlink" x="0px" y="0px"
	 viewBox="0 0 512 512" style="enable-background:new 0 0 512 512;" xml:space="preserve">
<path style="fill:#707487;" d="M450.207,26.483H61.793V8.828C61.793,3.953,65.746,0,70.621,0h370.759
	c4.875,0,8.828,3.953,8.828,8.828V26.483z"/>
<g>
	<path style="fill:#959CB3;" d="M88.276,512H70.621c-4.875,0-8.828-3.953-8.828-8.828v-35.31h35.31v35.31
		C97.103,508.047,93.151,512,88.276,512z"/>
	<path style="fill:#959CB3;" d="M441.379,512h-17.655c-4.875,0-8.828-3.953-8.828-8.828v-35.31h35.31v35.31
		C450.207,508.047,446.254,512,441.379,512z"/>
</g>
<path style="fill:#FFEBBE;" d="M450.207,476.69H61.793c-9.751,0-17.655-7.904-17.655-17.655V35.31
	c0-9.751,7.904-17.655,17.655-17.655h388.414c9.751,0,17.655,7.904,17.655,17.655v423.724
	C467.862,468.786,459.958,476.69,450.207,476.69z"/>
<path style="fill:#F0DCA0;" d="M432.552,423.724H79.448c-9.751,0-17.655-7.904-17.655-17.655v-256
	c0-9.751,7.904-17.655,17.655-17.655h353.103c9.751,0,17.655,7.904,17.655,17.655v256
	C450.207,415.82,442.303,423.724,432.552,423.724z"/>
<circle style="fill:#AFB9D2;" cx="211.862" cy="79.448" r="26.483"/>
<path style="fill:#707487;" d="M211.862,88.276c-4.875,0-8.828-3.953-8.828-8.828V52.966c0-4.875,3.953-8.828,8.828-8.828
	c4.875,0,8.828,3.953,8.828,8.828v26.483C220.69,84.323,216.737,88.276,211.862,88.276z"/>
<circle style="fill:#AFB9D2;" cx="300.138" cy="79.448" r="26.483"/>
<path style="fill:#707487;" d="M300.138,88.276c-4.875,0-8.828-3.953-8.828-8.828V52.966c0-4.875,3.953-8.828,8.828-8.828
	s8.828,3.953,8.828,8.828v26.483C308.966,84.323,305.013,88.276,300.138,88.276z"/>
<circle style="fill:#AFB9D2;" cx="388.414" cy="79.448" r="26.483"/>
<path style="fill:#707487;" d="M388.414,88.276c-4.875,0-8.828-3.953-8.828-8.828V52.966c0-4.875,3.953-8.828,8.828-8.828
	s8.828,3.953,8.828,8.828v26.483C397.241,84.323,393.289,88.276,388.414,88.276z"/>
<circle style="fill:#AFB9D2;" cx="123.586" cy="79.448" r="26.483"/>
<g>
	<path style="fill:#707487;" d="M123.586,88.276c-4.875,0-8.828-3.953-8.828-8.828V52.966c0-4.875,3.953-8.828,8.828-8.828
		c4.875,0,8.828,3.953,8.828,8.828v26.483C132.414,84.323,128.461,88.276,123.586,88.276z"/>
	<path style="fill:#707487;" d="M414.897,397.241H97.103c-4.875,0-8.828-3.953-8.828-8.828V203.034c0-4.875,3.953-8.828,8.828-8.828
		h317.793c4.875,0,8.828,3.953,8.828,8.828v185.379C423.724,393.289,419.772,397.241,414.897,397.241z"/>
</g>
<path style="fill:#FFFFFF;" d="M414.897,176.552H97.103c-4.875,0-8.828-3.953-8.828-8.828l0,0c0-4.875,3.953-8.828,8.828-8.828
	h317.793c4.875,0,8.828,3.953,8.828,8.828l0,0C423.724,172.599,419.772,176.552,414.897,176.552z"/>
<path style="fill:#FFD764;" d="M379.586,361.931H132.414c-4.875,0-8.828-3.953-8.828-8.828V238.345c0-4.875,3.953-8.828,8.828-8.828
	h247.172c4.875,0,8.828,3.953,8.828,8.828v114.759C388.414,357.978,384.461,361.931,379.586,361.931z"/>
<g>
	<path style="fill:#FFE678;" d="M244.043,329.759c-2.259,0-4.518-0.862-6.241-2.586l-49.836-49.87
		c-3.448-3.448-3.448-9.038,0-12.483c3.448-3.448,9.035-3.448,12.483,0l49.836,49.87c3.448,3.448,3.448,9.038,0,12.483
		C248.561,328.897,246.302,329.759,244.043,329.759z"/>
	<path style="fill:#FFE678;" d="M313.036,347.972c-2.259,0-4.518-0.862-6.241-2.586l-29.063-29.076
		c-3.448-3.448-3.448-9.038,0-12.483c3.448-3.448,9.035-3.448,12.483,0l29.063,29.076c3.448,3.448,3.448,9.038,0,12.483
		C317.554,347.109,315.295,347.972,313.036,347.972z"/>
</g>
<path style="fill:#FFF08C;" d="M257.495,292.409c-2.259,0-4.522-0.862-6.241-2.586l-10.862-10.871
	c-3.448-3.448-3.448-9.038,0-12.483c3.448-3.448,9.043-3.448,12.483,0l10.862,10.871c3.448,3.448,3.448,9.038,0,12.483
	C262.013,291.548,259.754,292.409,257.495,292.409z"/>
<path style="fill:#FFBE5A;" d="M379.586,229.517H132.414c-4.875,0-8.828,3.953-8.828,8.828V256c0-4.875,3.953-8.828,8.828-8.828
	h247.172c4.875,0,8.828,3.953,8.828,8.828v-17.655C388.414,233.47,384.461,229.517,379.586,229.517z"/>
<g>
</g>
<g>
</g>
<g>
</g>
<g>
</g>
<g>
</g>
<g>
</g>
<g>
</g>
<g>
</g>
<g>
</g>
<g>
</g>
<g>
</g>
<g>
</g>
<g>
</g>
<g>
</g>
<g>
</g>
</svg>
