<?xml version="1.0" encoding="iso-8859-1"?>
<!-- Generator: Adobe Illustrator 19.0.0, SVG Export Plug-In . SVG Version: 6.00 Build 0)  -->
<svg version="1.1" id="Layer_1" xmlns="http://www.w3.org/2000/svg" xmlns:xlink="http://www.w3.org/1999/xlink" x="0px" y="0px"
	 viewBox="0 0 512 512" style="enable-background:new 0 0 512 512;" xml:space="preserve">
<g>
	<path style="fill:#AFB9D2;" d="M167.724,512h-17.655c-4.875,0-8.828-3.953-8.828-8.828v-17.655h35.31v17.655
		C176.552,508.047,172.599,512,167.724,512z"/>
	<path style="fill:#AFB9D2;" d="M361.931,512h-17.655c-4.875,0-8.828-3.953-8.828-8.828v-17.655h35.31v17.655
		C370.759,508.047,366.806,512,361.931,512z"/>
</g>
<path style="fill:#00D7D7;" d="M361.931,494.345H150.069c-9.751,0-17.655-7.904-17.655-17.655V17.655
	C132.414,7.904,140.318,0,150.069,0h211.862c9.751,0,17.655,7.904,17.655,17.655V476.69
	C379.586,486.441,371.682,494.345,361.931,494.345z"/>
<rect x="132.414" y="158.897" style="fill:#00BEBE;" width="247.172" height="17.655"/>
<g>
	<path style="fill:#E4EAF6;" d="M353.103,141.241h-70.621c-4.875,0-8.828-3.953-8.828-8.828l0,0c0-4.875,3.953-8.828,8.828-8.828
		h70.621c4.875,0,8.828,3.953,8.828,8.828l0,0C361.931,137.289,357.978,141.241,353.103,141.241z"/>
	<path style="fill:#E4EAF6;" d="M282.483,194.207h70.621c4.875,0,8.828,3.953,8.828,8.828l0,0c0,4.875-3.953,8.828-8.828,8.828
		h-70.621c-4.875,0-8.828-3.953-8.828-8.828l0,0C273.655,198.159,277.608,194.207,282.483,194.207z"/>
</g>
<path style="fill:#00BEBE;" d="M132.414,476.69c0,9.75,7.905,17.655,17.655,17.655h211.862c9.75,0,17.655-7.905,17.655-17.655
	v-17.655H132.414V476.69z"/>
<g>
</g>
<g>
</g>
<g>
</g>
<g>
</g>
<g>
</g>
<g>
</g>
<g>
</g>
<g>
</g>
<g>
</g>
<g>
</g>
<g>
</g>
<g>
</g>
<g>
</g>
<g>
</g>
<g>
</g>
</svg>
