<?xml version="1.0" encoding="iso-8859-1"?>
<!-- Generator: Adobe Illustrator 19.0.0, SVG Export Plug-In . SVG Version: 6.00 Build 0)  -->
<svg version="1.1" id="Layer_1" xmlns="http://www.w3.org/2000/svg" xmlns:xlink="http://www.w3.org/1999/xlink" x="0px" y="0px"
	 viewBox="0 0 512 512" style="enable-background:new 0 0 512 512;" xml:space="preserve">
<rect x="167.724" y="361.931" style="fill:#707487;" width="176.552" height="51.862"/>
<path style="fill:#959CB3;" d="M503.172,370.759H8.828c-4.875,0-8.828-3.953-8.828-8.828V97.103c0-4.875,3.953-8.828,8.828-8.828
	h494.345c4.875,0,8.828,3.953,8.828,8.828v264.828C512,366.806,508.047,370.759,503.172,370.759z"/>
<rect x="17.655" y="105.931" style="fill:#FFD764;" width="476.69" height="247.172"/>
<path style="fill:#959CB3;" d="M353.103,423.724H158.897c-4.875,0-8.828-3.948-8.828-8.828c0-4.879,3.953-8.828,8.828-8.828h194.207
	c4.875,0,8.828,3.948,8.828,8.828C361.931,419.776,357.978,423.724,353.103,423.724z"/>
<g>
	<path style="fill:#FFE678;" d="M213.291,235.761c-2.259,0-4.518-0.862-6.241-2.586l-98.182-98.216
		c-3.448-3.448-3.448-9.038,0-12.483c3.448-3.448,9.035-3.448,12.483,0l98.182,98.216c3.448,3.448,3.448,9.038,0,12.483
		C217.809,234.899,215.55,235.761,213.291,235.761z"/>
	<path style="fill:#FFE678;" d="M370.759,342.449c-2.259,0-4.517-0.862-6.241-2.586L256.748,232.079
		c-3.448-3.448-3.448-9.038,0-12.483c3.448-3.448,9.035-3.448,12.483,0l107.769,107.783c3.448,3.448,3.448,9.038,0,12.483
		C375.276,341.587,373.017,342.449,370.759,342.449z"/>
</g>
<path style="fill:#FFF08C;" d="M236.515,208.183c-2.259,0-4.522-0.862-6.241-2.586L210.387,185.7c-3.448-3.448-3.448-9.038,0-12.483
	c3.448-3.448,9.043-3.448,12.483,0l19.887,19.896c3.448,3.448,3.448,9.038,0,12.483
	C241.033,207.321,238.774,208.183,236.515,208.183z"/>
<g>
</g>
<g>
</g>
<g>
</g>
<g>
</g>
<g>
</g>
<g>
</g>
<g>
</g>
<g>
</g>
<g>
</g>
<g>
</g>
<g>
</g>
<g>
</g>
<g>
</g>
<g>
</g>
<g>
</g>
</svg>
